<svg xmlns="http://www.w3.org/2000/svg" viewBox="0 0 24.1 24.1"><defs><style>.cls-1{fill:none;}.cls-2{fill:#ff5c35;}</style></defs><g id="Layer_1" data-name="Layer 1"><path d="M19.1,11a1,1,0,0,1-.7-.29,1,1,0,0,1,0-1.41L19.69,8H21.1a1,1,0,0,1,0,2h-.58l-.71.71A1,1,0,0,1,19.1,11Z"/><path d="M5.1,11a1,1,0,0,1-.7-.29L3.69,10H3.1a1,1,0,1,1,0-2H4.52l1.29,1.3a1,1,0,0,1,0,1.41A1,1,0,0,1,5.1,11Z"/><path class="cls-1" d="M24.15,24.05H.05V0h24.1ZM.15,24h23.9V.05H.15Z"/><path d="M5.1,21a1,1,0,0,1-1-1V17a1,1,0,1,1,2,0v3A1,1,0,0,1,5.1,21Z"/><path d="M19.1,21a1,1,0,0,1-1-1V17a1,1,0,0,1,2,0v3A1,1,0,0,1,19.1,21Z"/><path class="cls-2" d="M18.94,7.44,17.55,4.65A3,3,0,0,0,14.87,3H9.34A3,3,0,0,0,6.66,4.65L5.27,7.44A11,11,0,0,0,4.1,12.35V18h16V12.35A11,11,0,0,0,18.94,7.44ZM7.06,8.33,8.45,5.55A1,1,0,0,1,9.34,5h5.53a1,1,0,0,1,.89.56l1.39,2.78a8.58,8.58,0,0,1,.65,1.75,3.12,3.12,0,0,0-.7-.09H7.1a3.1,3.1,0,0,0-.69.09A8.58,8.58,0,0,1,7.06,8.33Z"/><rect x="7.1" y="12.99" width="2" height="2" rx="1"/><rect x="15.1" y="12.99" width="2" height="2" rx="1"/></g></svg>