<svg width="61" height="60" viewBox="0 0 61 60" fill="none" xmlns="http://www.w3.org/2000/svg">
<path d="M49.7929 56.4752H10.5501C6.08538 56.4752 2.79556 52.4021 3.65718 48.0157L7.88694 30.3916C8.51357 27.1018 11.4117 24.752 14.7799 24.752H45.5632C48.9313 24.752 51.8295 27.1018 52.4561 30.3916L56.6859 48.0157C57.5475 52.4021 54.1794 56.4752 49.7929 56.4752Z" fill="#FF6C3D"/>
<path d="M49.7929 60H10.5501C7.33857 60 4.36206 58.5901 2.40384 56.1619C0.367287 53.7337 -0.416003 50.5222 0.210629 47.389L4.44039 29.6084C5.38034 24.8303 9.76677 21.2272 14.7798 21.2272H45.5631C50.5762 21.2272 54.9626 24.8303 55.9025 29.765L60.1323 47.3107C60.7589 50.6005 59.9756 53.7337 57.9391 56.2402C55.9025 58.5901 52.926 60 49.7929 60ZM14.7798 28.1984C13.1349 28.1984 11.6467 29.3734 11.3333 31.0183L7.10358 48.799C6.94692 49.7389 7.18191 50.7572 7.88687 51.6188C8.59183 52.4021 9.53178 52.8721 10.6284 52.8721H49.8712C50.9678 52.8721 51.9077 52.4021 52.6127 51.6188C53.3177 50.8355 53.5527 49.7389 53.3177 48.7206L49.0879 31.175C48.6963 29.3734 47.2863 28.1984 45.5631 28.1984H14.7798Z" fill="#FF6C3D"/>
<path d="M33.657 10.5744H26.6074V21.1488H33.657V10.5744Z" fill="black"/>
<path d="M44.2313 14.0992H16.0329C10.1582 14.0992 5.4585 9.32115 5.4585 3.5248C5.4585 1.56658 7.02508 0 8.9833 0C10.9415 0 12.5081 1.56658 12.5081 3.5248C12.5081 5.48303 14.0747 7.04961 16.0329 7.04961H44.2313C46.1896 7.04961 47.7561 5.48303 47.7561 3.5248C47.7561 1.56658 49.3227 0 51.2809 0C53.2392 0 54.8057 1.56658 54.8057 3.5248C54.8057 9.39948 50.106 14.0992 44.2313 14.0992Z" fill="black"/>
<path d="M40.7068 42.376H19.558C17.5998 42.376 16.0332 40.8094 16.0332 38.8512C16.0332 36.893 17.5998 35.3264 19.558 35.3264H40.7068C42.665 35.3264 44.2316 36.893 44.2316 38.8512C44.2316 40.8094 42.665 42.376 40.7068 42.376Z" fill="black"/>
</svg>
