<svg width="59" height="60" viewBox="0 0 59 60" fill="none" xmlns="http://www.w3.org/2000/svg">
<path d="M17.1841 15.2592C17.1841 8.66665 22.5174 3.33331 29.11 3.33331C35.7026 3.33331 41.0359 8.66665 41.0359 15.2592V22.3704L29.11 34.3704L17.1841 22.3704V15.2592Z" fill="#FF6C3D"/>
<path d="M29.1103 39.037L13.8511 23.7778V15.2593C13.8511 6.81481 20.74 0 29.1103 0C37.4807 0 44.3696 6.88889 44.3696 15.2593V23.7778L29.1103 39.037ZM20.5177 21.037L29.1103 29.6296L37.7029 21.037V15.2593C37.7029 10.5185 33.8511 6.66666 29.1103 6.66666C24.3696 6.66666 20.5177 10.5185 20.5177 15.2593V21.037Z" fill="#FF6C3D"/>
<path d="M29.1108 20.2963C31.8927 20.2963 34.1478 18.0411 34.1478 15.2593C34.1478 12.4774 31.8927 10.2222 29.1108 10.2222C26.3289 10.2222 24.0737 12.4774 24.0737 15.2593C24.0737 18.0411 26.3289 20.2963 29.1108 20.2963Z" fill="black"/>
<path d="M54.8889 50H3.33333C1.48148 50 0 48.5186 0 46.6667C0 44.8149 1.48148 43.3334 3.33333 43.3334H54.8889C56.7408 43.3334 58.2222 44.8149 58.2222 46.6667C58.2222 48.5186 56.7408 50 54.8889 50Z" fill="black"/>
<path d="M48.223 60C46.3711 60 44.8896 58.5185 44.8896 56.6666V36.6666C44.8896 34.8148 46.3711 33.3333 48.223 33.3333C50.0748 33.3333 51.5563 34.8148 51.5563 36.6666V56.6666C51.5563 58.5185 50.0748 60 48.223 60Z" fill="black"/>
<path d="M9.99935 60C8.1475 60 6.66602 58.5185 6.66602 56.6666V36.6666C6.66602 34.8148 8.1475 33.3333 9.99935 33.3333C11.8512 33.3333 13.3327 34.8148 13.3327 36.6666V56.6666C13.3327 58.5185 11.8512 60 9.99935 60Z" fill="black"/>
</svg>
