<svg width="60" height="60" viewBox="0 0 60 60" fill="none" xmlns="http://www.w3.org/2000/svg">
<path d="M59.9998 60H39.9998C38.148 60 36.6665 58.5185 36.6665 56.6667C36.6665 54.8148 38.148 53.3333 39.9998 53.3333H53.3332V40C53.3332 38.1481 54.8147 36.6667 56.6665 36.6667C58.5184 36.6667 59.9998 38.1481 59.9998 40V60Z" fill="black"/>
<path d="M12.6668 56.6667H3.3335V47.3333C3.3335 44.2222 4.51868 41.3333 6.7409 39.1111L12.2224 33.6296L26.1483 48L20.9631 53.1852C18.6668 55.4815 15.7779 56.6667 12.6668 56.6667ZM10.0002 50H12.6668C14.0002 50 15.1853 49.4815 16.1483 48.5926L16.7409 48L12.0742 43.1852L11.4076 43.8519C10.5187 44.8148 10.0002 46 10.0002 47.3333V50Z" fill="black"/>
<path d="M12.0737 38.4445L41.9256 8.59261C44.5182 6.00001 48.7404 6.00001 51.333 8.59261C53.9256 11.1852 53.9256 15.4074 51.333 18L21.4071 48.0741L12.0737 38.4445Z" fill="#FF6C3D"/>
<path d="M21.3327 52.8148L7.40674 38.4444L39.629 6.22222C43.4067 2.44444 49.9993 2.44444 53.7771 6.22222C55.629 8.07407 56.7401 10.5926 56.7401 13.3333C56.7401 16 55.703 18.5185 53.7771 20.4444L21.3327 52.8148ZM16.8141 38.5185L21.4808 43.3333L49.1105 15.7037C49.703 15.037 50.0734 14.2222 50.0734 13.3333C50.0734 12.4444 49.703 11.6296 49.1105 10.963C47.8512 9.7037 45.629 9.7037 44.3697 10.963L16.8141 38.5185Z" fill="#FF6C3D"/>
<path d="M3.33333 23.3333C1.48148 23.3333 0 21.8519 0 20V0H20C21.8519 0 23.3333 1.48148 23.3333 3.33333C23.3333 5.18519 21.8519 6.66667 20 6.66667H6.66667V20C6.66667 21.8519 5.18519 23.3333 3.33333 23.3333Z" fill="black"/>
</svg>
