<svg width="61" height="60" viewBox="0 0 61 60" fill="none" xmlns="http://www.w3.org/2000/svg">
<path d="M43.8716 26.7078V13.3909L50.53 16.7201V26.7078" fill="#FF6C3D"/>
<path d="M53.8594 26.7077H40.5425V7.99011L53.8594 14.6486V26.7077Z" fill="#FF6C3D"/>
<path d="M30.5547 3.40323H3.9209L9.69155 37.8052C10.2094 40.9865 13.0208 43.3539 16.276 43.3539H18.3475C21.6028 43.3539 24.4141 40.9865 24.932 37.8052L30.5547 3.40323Z" fill="#FF6C3D"/>
<path d="M18.2737 46.6831H16.2022C11.3194 46.6831 7.17633 43.1319 6.36252 38.3231L0 0H34.5499L28.1874 38.3231C27.2996 43.2059 23.1566 46.6831 18.2737 46.6831ZM7.84217 6.73243L12.947 37.2873C13.2429 38.9149 14.5746 40.0986 16.2022 40.0986H18.2737C19.9014 40.0986 21.307 38.9149 21.529 37.2873L26.6338 6.73243H7.84217Z" fill="#FF6C3D"/>
<path d="M27.2258 59.7041H7.25049V50.0124C7.25049 44.4637 11.7634 40.0247 17.2382 40.0247C22.7129 40.0247 27.2258 44.5376 27.2258 50.0124V59.7041ZM13.9089 53.0456H20.5674V50.0124C20.5674 48.1628 19.0877 46.6831 17.2382 46.6831C15.3886 46.6831 13.9089 48.1628 13.9089 50.0124V53.0456Z" fill="black"/>
<path d="M57.1887 43.3539H37.2134V23.3785H57.1887V43.3539ZM43.8718 36.6954H50.5303V30.037H43.8718V36.6954Z" fill="black"/>
<path d="M37.2134 40.0247H57.1887V55.635C57.1887 56.2269 56.7448 56.6708 56.153 56.6708H38.2491C37.6573 56.6708 37.2134 56.2269 37.2134 55.635V40.0247V40.0247Z" fill="#FF6C3D"/>
<path d="M52.4539 60H41.9484C37.5094 60 33.8843 56.3749 33.8843 51.9359V36.6955H60.5181V51.9359C60.5181 56.3749 56.9669 60 52.4539 60ZM40.5427 43.3539V51.9359C40.5427 52.7497 41.2086 53.3416 41.9484 53.3416H52.4539C53.2678 53.3416 53.8596 52.6757 53.8596 51.9359V43.3539H40.5427Z" fill="#FF6C3D"/>
</svg>
