<svg width="60" height="60" viewBox="0 0 60 60" fill="none" xmlns="http://www.w3.org/2000/svg">
<path d="M42.6516 5.95138L24.3193 24.2836L29.0333 28.9976L47.3656 10.6654L42.6516 5.95138Z" fill="black"/>
<path d="M46.6662 13.3333C50.3481 13.3333 53.3328 10.3486 53.3328 6.66667C53.3328 2.98477 50.3481 0 46.6662 0C42.9843 0 39.9995 2.98477 39.9995 6.66667C39.9995 10.3486 42.9843 13.3333 46.6662 13.3333Z" fill="black"/>
<path d="M9.99902 23.3333V36.6666C9.99902 47.7037 18.962 56.6666 29.999 56.6666C41.0361 56.6666 49.999 47.7037 49.999 36.6666V23.3333" fill="#FF6C3D"/>
<path d="M29.9994 60C17.1105 60 6.66602 49.5555 6.66602 36.6666V23.3333H13.3327V36.6666C13.3327 45.8518 20.8142 53.3333 29.9994 53.3333C39.1845 53.3333 46.666 45.8518 46.666 36.6666V23.3333H53.3327V36.6666C53.3327 49.5555 42.8882 60 29.9994 60Z" fill="#FF6C3D"/>
<path d="M34.2956 39.7037L30.74 43.2593C30.2956 43.7037 29.6289 43.7037 29.2585 43.2593L25.703 39.7037C25.2585 39.2593 25.2585 38.5926 25.703 38.2222L29.2585 34.6667C29.703 34.2222 30.3696 34.2222 30.74 34.6667L34.2956 38.2222C34.74 38.5926 34.74 39.2593 34.2956 39.7037Z" fill="black"/>
<path d="M56.6667 26.6667H3.33333C1.48148 26.6667 0 25.1852 0 23.3333C0 21.4815 1.48148 20 3.33333 20H56.6667C58.5185 20 60 21.4815 60 23.3333C60 25.1852 58.5185 26.6667 56.6667 26.6667Z" fill="#FF6C3D"/>
</svg>
